<?xml version="1.0" encoding="UTF-8"?>
<svg id="Layer_1" data-name="Layer 1" xmlns="http://www.w3.org/2000/svg" viewBox="0 0 1578.3 623.51">
  <defs>
    <style>
      .cls-1 {
        fill: #750000;
      }

      .cls-1, .cls-2, .cls-3, .cls-4, .cls-5, .cls-6, .cls-7, .cls-8, .cls-9 {
        stroke-width: 0px;
      }

      .cls-2 {
        fill: #fcfcfc;
      }

      .cls-3 {
        fill: #fed75f;
      }

      .cls-10 {
        font-family: Poppins-ExtraBold, Poppins;
        font-weight: 700;
      }

      .cls-4 {
        fill: #a90000;
      }

      .cls-5 {
        fill: #2d0000;
      }

      .cls-6 {
        fill: #010101;
      }

      .cls-7 {
        fill: #c6a84a;
      }

      .cls-11 {
        fill: #000;
        font-size: 163.29px;
      }

      .cls-8 {
        fill: #caac4c;
      }

      .cls-9 {
        fill: #2a0000;
      }

      .cls-12 {
        font-family: Poppins-Light, Poppins;
        font-weight: 300;
      }
    </style>
  </defs>
  <path class="cls-7" d="M642.1,25.87h-9.84c3.2-.98,6.64-.98,9.84,0Z"/>
  <path class="cls-2" d="M642.1,25.87h-9.84c3.2-2.22,6.4-2.22,9.84,0Z"/>
  <g>
    <path class="cls-7" d="M518.01,482.16c1.72-2.71,0-5.91,1.48-8.61,0,2.95.49,5.91-1.48,8.61Z"/>
    <path class="cls-7" d="M519.73,428.75c2.22,12.31,2.22,24.61,0,36.92,1.23-12.31,1.23-24.61,0-36.92Z"/>
    <path class="cls-7" d="M640.84,341.85c-1.48,2.71.25,5.91-1.23,8.62,0-2.95-.49-5.91,1.23-8.62Z"/>
    <path class="cls-7" d="M639.61,263.58c1.48,3.2-.49,6.89,1.23,10.09-1.72-3.2-1.23-6.65-1.23-10.09Z"/>
    <path class="cls-7" d="M641.08,337.18c.25-3.94-.49-8.12,1.48-11.81-1.72,3.94.25,8.12-1.48,11.81Z"/>
    <path class="cls-7" d="M641.78,295.06c.21,1.65.18,3.3.78,4.95-.53-1.65-.72-3.3-.78-4.95Z"/>
    <path class="cls-7" d="M641.78,295.06c-.58-4.5-.46-9-.46-13.51,1.26,4.5.3,9,.46,13.51Z"/>
    <path class="cls-6" d="M365.55,239.68c0,.43-.31.73-.73.73-.41,0-.73-.33-.72-.74,0-.41.34-.73.74-.73.41,0,.72.33.71.75Z"/>
    <path class="cls-2" d="M353.41,241.74c.29,0,.59-.02.88,0,.21.01.3-.05.26-.26.13.23.06.35-.21.33-.31-.02-.63.07-.93-.06Z"/>
    <path class="cls-2" d="M519.73,465.67v-36.92c2.22,12.31,2.22,24.61,0,36.92Z"/>
    <path class="cls-2" d="M377.87,241.39c-.42-.03-.84-.03-1.27,0,.42-.1.84-.1,1.27,0Z"/>
    <path class="cls-2" d="M370.61,241.39c-.4-.03-.8-.03-1.2,0,.4-.09.8-.1,1.2,0Z"/>
    <path class="cls-2" d="M357.33,241.48c-.31,0-.63-.01-.94-.02-.09,0-.14.03-.18.11.02-.05.04-.14.06-.14.36-.02.72-.12,1.07.05Z"/>
    <path class="cls-2" d="M351.25,240.59c.32-.1.64-.1.96,0-.32,0-.64,0-.96,0Z"/>
    <path class="cls-2" d="M642.56,300.01c-.53-1.65-.72-3.3-.78-4.95-.58-4.5-.46-9-.46-13.51,2.95,5.91.74,12.31,1.23,18.46Z"/>
    <path class="cls-2" d="M641.08,337.18c.25-3.94-.49-8.12,1.48-11.81-.25,3.94,1.48,8.12-1.48,11.81Z"/>
    <path class="cls-2" d="M640.84,273.67c-1.72-3.2-1.23-6.65-1.23-10.09,2.71,2.95.98,6.65,1.23,10.09Z"/>
    <path class="cls-2" d="M373.52,268.19c.11-.06.23-.06.35-.06-.1.11-.23.05-.35.06Z"/>
    <path class="cls-2" d="M372.07,268.13c.12,0,.24,0,.35.06-.12,0-.25.05-.35-.06Z"/>
    <path class="cls-2" d="M519.49,473.54c0,2.95.49,5.91-1.48,8.61.25-2.95-.98-6.15,1.48-8.61Z"/>
    <path class="cls-2" d="M639.61,350.47c0-2.95-.49-5.91,1.23-8.62,0,2.95,1.23,5.91-1.23,8.62Z"/>
    <g>
      <path class="cls-8" d="M642.07,286.96c0-1.23-.24-2.71-.24-3.94-.25-3.2-.49-6.15-.99-9.35v-1.23c-.25-1.72-.49-3.69-.74-5.66,0-.49,0-1.23-.25-1.72v-.98c-10.09-77.78-41.85-145.72-98.71-202.33-12.06-11.57-24.12-23.14-38.65-32-61.54-38.15-69.17-40.61-128.73-1.48-41.35,27.32-74.09,60.8-98.21,99.94,30.03,10.83,58.58,26.34,85.66,45.54,6.4,4.43,12.55,9.35,18.71,14.03,4.92,3.94,9.35,7.88,14.03,11.82,2.46,1.97,4.68,4.18,7.14,6.64,3.45,2.71,6.89,5.91,10.09,9.6,8.37,7.88,16.25,16.25,23.63,25.11,3.94,4.68,7.63,9.35,11.32,14.28,7.38,9.84,14.03,19.94,20.18,30.28,6.89,11.57,12.8,23.38,17.97,35.69,10.83,24.61,18.46,50.95,22.89,78.52,1.48,8.12,2.71,16.49,3.45,25.11.25,1.48.25,2.95.25,4.68.49,5.91.74,11.82.74,17.97,0,44.8-12.55,85.91-36.92,122.09-1.48,2.22-2.95,4.19-4.68,6.4,35.2-8.61,65.23-27.08,89.84-52.43,4.68-4.68,9.35-9.84,13.54-15.26,39.38-48.49,61.29-101.66,67.44-159.75.25-.74.49-1.48.25-2.22.74-3.69.98-7.38,1.23-11.32.25-2.22.25-4.43.25-6.4v-3.2c.49-8.37.49-16.74,0-25.35-.25-1.48,0-3.2,0-4.68,0-2.71-.25-5.66-.49-8.37ZM492.41,300.5c-3.45,3.45-8.12,3.69-11.57.25-3.69-3.45-3.94-7.63-.49-11.57,3.69-3.94,7.38-3.69,11.32-.74,3.69,3.94,4.19,8.12.74,12.06Z"/>
      <path class="cls-1" d="M556.41,291.15c-4.18-50.21-22.89-94.27-59.07-129.72-7.14-6.89-14.28-14.03-22.65-18.95-36.18-22.4-40.86-23.88-75.81-.98-14.28,9.6-26.83,20.18-37.66,32.25,6.4,4.43,12.55,9.35,18.71,14.03,4.92,3.94,9.35,7.88,14.03,11.82,2.46,1.97,4.68,4.18,7.14,6.64,3.45,2.71,6.89,5.91,10.09,9.6,8.37,7.88,16.25,16.25,23.63,25.11,3.94,4.68,7.63,9.35,11.32,14.28,7.38,9.84,14.03,19.94,20.18,30.28,6.89,11.57,12.8,23.38,17.97,35.69,10.83,24.61,18.46,50.95,22.89,78.52,1.48,8.12,2.71,16.49,3.45,25.11.25,1.48.25,2.95.25,4.68,1.97-1.97,3.69-3.94,5.41-6.15,31.51-38.65,44.06-82.95,40.12-132.18ZM492.41,300.5c-3.45,3.45-8.12,3.69-11.57.25-3.69-3.45-3.94-7.63-.49-11.57,3.69-3.94,7.38-3.69,11.32-.74,3.69,3.94,4.19,8.12.74,12.06Z"/>
      <path class="cls-1" d="M492.41,300.5c-3.45,3.45-8.12,3.69-11.57.25-3.69-3.45-3.94-7.63-.49-11.57,3.69-3.94,7.38-3.69,11.32-.74,3.69,3.94,4.19,8.12.74,12.06Z"/>
      <path class="cls-9" d="M521.7,374.84c-3.94,8.86-8.86,17.23-14.52,24.86-4.43-27.57-12.06-53.91-22.89-78.52,2.22-2.22,5.17-4.19,8.61-5.42,8.37-2.95,14.03-8.86,15.02-17.97.74-9.35-2.46-17.23-10.58-22.4-3.2-1.97-4.43-4.68-4.92-7.88-6.89-36.18-20.18-69.66-42.34-99.44-2.46-3.2-7.14-7.88-3.69-11.32,3.44-3.45,8.86.24,12.55,2.71,28.55,17.72,48.24,43.57,61.04,73.84,20.18,46.52,22.4,94.03,1.72,141.53Z"/>
      <path class="cls-9" d="M434.81,240.94c-7.38-8.86-15.26-17.23-23.63-25.11,3.2-5.66,6.15-11.57,8.86-17.23,1.72-3.44,3.94-7.88-.25-10.58-4.43-3.2-6.65,1.48-9.11,4.19-3.69,4.18-6.89,9.11-9.6,14.03-2.46-2.46-4.68-4.68-7.14-6.64-4.68-3.94-9.11-7.88-14.03-11.82,9.6-10.83,20.43-19.94,32.49-28.06,10.09-6.65,14.03-5.91,19.69,4.43,14.03,26.09,13.54,51.44,2.71,76.8Z"/>
      <path class="cls-9" d="M472.96,277.12c-2.95,2.71-5.17,5.66-6.64,8.37-6.15-10.34-12.8-20.43-20.18-30.28,6.65-13.29,10.83-27.32,11.81-42.34,8.12,17.72,13.29,36.18,17.72,54.89.74,3.45.49,6.15-2.71,9.35Z"/>
    </g>
    <path class="cls-3" d="M486.01,427.02c0-.98-.25-2.22-.25-3.2-2.46-24.86-7.38-48.25-15.51-70.4,0-.74-.25-1.23-.49-1.97,0-.25-.24-.74-.24-.98-2.46-7.88-5.66-15.51-9.11-23.14-7.63-16.98-16.74-33.23-27.81-48.49-3.2-4.92-6.65-9.6-10.34-14.28-3.69-4.68-7.63-9.35-11.57-13.78-8.37-9.6-17.48-18.71-27.32-27.57-1.72-1.72-3.69-3.44-5.66-5.17-4.18-3.69-8.37-7.14-12.8-10.58-6.15-5.17-12.55-9.85-18.95-14.28-25.85-18.46-53.41-32.98-82.46-43.32-34.95-12.8-72.37-19.69-112.24-19.94-16.74,0-33.48.25-49.97,3.94-70.64,15.75-78.03,19.2-93.29,88.86-21.66,98.95,1.23,191.26,62.27,271.5,65.72,86.15,150.89,137.35,263.87,128.24,38.65-2.95,72.12-16,98.7-41.11,7.88-7.39,15.02-16,21.42-25.6,21.91-32.25,32.25-68.18,32.74-105.84v-2.46c0-6.65-.25-13.54-.98-20.43ZM170.2,358.35c5.17.24,7.38,3.44,8.12,8.37-.49,4.92-3.45,8.12-8.37,7.88-4.92,0-8.12-3.2-8.12-8.12.24-5.17,3.2-8.12,8.37-8.12ZM274.82,343.09c-4.92.24-8.12-2.71-8.37-7.88-.25-5.42,2.71-7.88,7.63-8.37,5.41.25,8.61,2.95,8.86,8.12,0,4.92-3.2,8.12-8.12,8.12ZM290.82,397.24c4.68.49,8.12,3.45,7.63,8.62-.25,5.17-3.94,7.38-8.37,7.88-5.17-.74-8.37-3.69-8.12-8.86.49-4.92,3.69-7.88,8.86-7.63Z"/>
    <path class="cls-3" d="M486.01,427.02c0-.98-.25-2.22-.25-3.2-2.46-24.86-7.38-48.25-15.51-70.4,0-.74-.25-1.23-.49-1.97,0-.25-.24-.74-.24-.98-2.46-7.88-5.66-15.51-9.11-23.14-7.63-16.98-16.74-33.23-27.81-48.49-3.2-4.92-6.65-9.6-10.34-14.28-3.69-4.68-7.63-9.35-11.57-13.78-8.37-9.6-17.48-18.71-27.32-27.57-1.72-1.72-3.69-3.44-5.66-5.17-4.18-3.69-8.37-7.14-12.8-10.58-6.15-5.17-12.55-9.85-18.95-14.28-25.85-18.46-53.41-32.98-82.46-43.32-34.95-12.8-72.37-19.69-112.24-19.94-16.74,0-33.48.25-49.97,3.94-70.64,15.75-78.03,19.2-93.29,88.86-21.66,98.95,1.23,191.26,62.27,271.5,65.72,86.15,150.89,137.35,263.87,128.24,38.65-2.95,72.12-16,98.7-41.11,7.88-7.39,15.02-16,21.42-25.6,21.91-32.25,32.25-68.18,32.74-105.84v-2.46c0-6.65-.25-13.54-.98-20.43ZM170.2,358.35c5.17.24,7.38,3.44,8.12,8.37-.49,4.92-3.45,8.12-8.37,7.88-4.92,0-8.12-3.2-8.12-8.12.24-5.17,3.2-8.12,8.37-8.12ZM274.82,343.09c-4.92.24-8.12-2.71-8.37-7.88-.25-5.42,2.71-7.88,7.63-8.37,5.41.25,8.61,2.95,8.86,8.12,0,4.92-3.2,8.12-8.12,8.12ZM290.82,397.24c4.68.49,8.12,3.45,7.63,8.62-.25,5.17-3.94,7.38-8.37,7.88-5.17-.74-8.37-3.69-8.12-8.86.49-4.92,3.69-7.88,8.86-7.63Z"/>
    <path class="cls-4" d="M385.83,407.58v-1.48c-2.46-28.31-10.83-53.42-24.86-76.06v-.49c-7.14-12.55-16.49-24.37-27.32-35.45-3.69-3.69-7.38-7.14-11.32-10.58-2.71-2.21-5.17-4.43-7.88-6.4-24.37-19.69-51.2-33.23-80.74-39.88-14.03-3.69-28.8-5.41-44.31-5.41-9.85,0-19.94,0-29.54,2.21-41.35,9.35-45.78,11.32-54.89,52.18-12.55,58.34.74,112.49,36.68,159.5,38.65,50.71,88.61,80.74,155.07,75.32,2.46-.25,4.92-.49,7.38-.99,26.09-3.69,47.75-15.51,63.26-38.15,6.65-9.84,11.57-20.43,14.52-31.26,2.21-8.12,3.69-16.25,4.18-24.61.49-6.15.49-12.31-.25-18.46ZM169.96,374.59c-4.92,0-8.12-3.2-8.12-8.12.24-5.17,3.2-8.12,8.37-8.12,5.17.24,7.38,3.44,8.12,8.37-.49,4.92-3.45,8.12-8.37,7.88ZM274.08,326.84c5.41.25,8.61,2.95,8.86,8.12,0,4.92-3.2,8.12-8.12,8.12-4.92.24-8.12-2.71-8.37-7.88-.25-5.42,2.71-7.88,7.63-8.37ZM290.08,413.73c-5.17-.74-8.37-3.69-8.12-8.86.49-4.92,3.69-7.88,8.86-7.63,4.68.49,8.12,3.45,7.63,8.62-.25,5.17-3.94,7.38-8.37,7.88Z"/>
    <path class="cls-5" d="M365.32,417.27c-.91,17.28-4.29,33.14-12.94,47.55-4.78,7.97-7.06,8.31-14.87,3.18-15.75-10.33-22.05-27.33-30.5-42.81-1.55-2.84.71-5.2,1.89-7.59,7.53-15.23,4.8-24.56-9.67-32.58-1.43-.79-3.6-1.17-3.71-2.85-.77-12.24-7.67-24.17-1.54-36.78,3.84-7.91,3.94-15.97-1.79-23.14-5.91-7.38-13.72-10.81-23.17-8.72-3.7.82-6.39-.42-9.11-2.32-30.2-21.03-63.03-35.68-99.59-41.56-3.98-.64-10.68-.6-10.62-5.59.06-4.85,6.52-5.9,10.9-6.85,32.84-7.11,64.83-2.52,95.27,10.13,46.85,19.48,81.57,51.94,99.99,100.21,6.19,16.22,8.27,33.24,9.48,49.7Z"/>
    <path class="cls-5" d="M249.45,457.79c-30.9-14.8-48.73-41.15-63.36-70.4-1.48-2.97-.49-4.92,1.21-7.39,9.43-13.72,4.4-29.45-11.4-34.78-5.1-1.72-7.49-4.61-8.79-9.49-2.11-7.9-4.45-15.75-7.08-23.49-1.19-3.51-2.67-8.1-7.49-7.32-5.48.88-3.8,5.88-3.64,9.42.45,9.64,3.3,18.8,6.7,27.73,1.46,3.85.9,6.27-1.82,9.42-11.35,13.14-5.87,31.66,10.84,36.15,5.12,1.37,7.6,3.81,9.76,8.46,22.59,48.59,58.51,80.86,112.35,90.93,4.28.8,8.51,1.98,12.69,3.2,2.42.71,4.83,2.04,4.54,5-.27,2.82-2.95,2.72-5.07,3.12-22.09,4.12-43.8,1.9-64.24-6.77-61.78-26.21-97.59-73.29-108.86-139.14-3.58-20.89-2.87-41.84,1.72-62.63,2.58-11.68,5.78-13.92,17.09-10.39,33.18,10.36,51.22,34.16,59.94,66.78,6.33,23.69,11.61,47.73,21.32,70.42,6.26,14.63,15.17,27.71,23.59,41.18Z"/>
    <path class="cls-5" d="M197.12,296.17c18.34,7.01,34.84,16.56,50.94,26.87,3.12,2,4.8,4.15,4.64,8.56-.53,14.88,5.39,21.96,19.89,25.42,1.54.37,3.33.65,4.45,1.61,2.35,2.02,2.47,25.72.4,28.26-15.49,18.96-11.41,33.59,11.48,40.72,2.73.85,4.01,2.6,4.99,4.91,6.24,14.71,15.14,27.68,25.61,39.69,1.54,1.77,5.41,3.48,3.07,6.61-2.06,2.75-5.67,1.71-8.43.78-15.43-5.2-29.31-13.09-41.44-24.06-21.6-19.54-33.73-44.6-41.73-71.94-3.9-13.32-6.97-26.88-10.32-40.35-4.33-17.43-11.84-33.24-23.54-47.08Z"/>
  </g>
  <text class="cls-11" transform="translate(685.31 139.53)"><tspan class="cls-10"><tspan x="0" y="0">Spice </tspan></tspan><tspan class="cls-10"><tspan x="0" y="195.94">Solutions</tspan></tspan><tspan class="cls-12"><tspan x="0" y="391.89">IT Solutions</tspan></tspan></text>
</svg>